<?xml version="1.0" encoding="utf-8"?>
<!-- Generator: Adobe Illustrator 16.0.0, SVG Export Plug-In . SVG Version: 6.00 Build 0)  -->
<!DOCTYPE svg PUBLIC "-//W3C//DTD SVG 1.1//EN" "http://www.w3.org/Graphics/SVG/1.1/DTD/svg11.dtd">
<svg version="1.1" id="Layer_1" xmlns="http://www.w3.org/2000/svg" xmlns:xlink="http://www.w3.org/1999/xlink" x="0px" y="0px"
	 width="128.001px" height="90px" viewBox="0 0 128.001 90" enable-background="new 0 0 128.001 90" xml:space="preserve">
<g>
	<path fill="#0B313E" d="M0,76.884c0-7.249,5.829-13.12,13.021-13.12c7.189,0,13.016,5.872,13.016,13.12
		C26.037,84.129,20.21,90,13.021,90C5.829,90,0,84.129,0,76.884z"/>
	<path fill="#388CAF" d="M102.193,76.884c0,7.245-5.827,13.116-13.018,13.116l-44.537-0.004c-7.187,0-13.018-5.871-13.018-13.116
		l0,0c0-7.245,5.831-13.116,13.018-13.116l44.537,0.003C96.366,63.767,102.193,69.64,102.193,76.884L102.193,76.884z"/>
	<path fill="#388CAF" d="M114.815,45.021c0,7.248-5.828,13.119-13.019,13.119h-75.76c-7.188,0-13.016-5.871-13.016-13.119l0,0
		c0-7.243,5.828-13.12,13.016-13.12h75.76C108.987,31.902,114.815,37.779,114.815,45.021L114.815,45.021z"/>
	<path fill="#388CAF" d="M128.001,13.118c0,7.246-5.834,13.122-13.024,13.122H39.061c-7.191,0-13.023-5.875-13.023-13.118l0,0
		C26.037,5.873,31.87,0,39.061,0h75.916C122.167,0,128.001,5.873,128.001,13.118L128.001,13.118z"/>
</g>
</svg>
